<svg width="47" height="22" viewBox="0 0 47 22" fill="none" xmlns="http://www.w3.org/2000/svg">
<path d="M8.79118 21.352C7.12718 21.352 5.68718 20.9253 4.47118 20.072C3.27652 19.2187 2.35918 18.024 1.71918 16.488C1.07918 14.952 0.759183 13.16 0.759183 11.112C0.759183 9.40533 0.929849 7.96533 1.27118 6.792C1.63385 5.59733 2.11385 4.60533 2.71118 3.816C3.30852 3.02667 3.95918 2.408 4.66318 1.96C5.38852 1.512 6.10318 1.20267 6.80718 1.032C7.53252 0.84 8.18318 0.743999 8.75918 0.743999C9.63385 0.743999 10.4658 0.882666 11.2552 1.16C12.0659 1.43733 12.7912 1.832 13.4312 2.344C14.0925 2.856 14.6259 3.48533 15.0312 4.232L12.9192 6.312L12.7272 6.536L12.5032 6.312C12.4819 6.14133 12.4499 5.98133 12.4072 5.832C12.3645 5.66133 12.2259 5.43733 11.9912 5.16C11.7565 4.88267 11.4898 4.63733 11.1912 4.424C10.9139 4.21067 10.5832 4.05067 10.1992 3.944C9.81518 3.816 9.36718 3.752 8.85518 3.752C8.38585 3.752 7.92718 3.82667 7.47918 3.976C7.03118 4.12533 6.61518 4.38133 6.23118 4.744C5.86852 5.08533 5.53785 5.53333 5.23918 6.088C4.94052 6.62133 4.71652 7.28267 4.56718 8.072C4.41785 8.84 4.34318 9.74667 4.34318 10.792C4.34318 12.072 4.44985 13.192 4.66318 14.152C4.87652 15.0907 5.17518 15.88 5.55918 16.52C5.96452 17.16 6.43385 17.64 6.96718 17.96C7.52185 18.2587 8.12985 18.408 8.79118 18.408C9.06852 18.408 9.33518 18.3973 9.59118 18.376C9.84718 18.3333 10.1032 18.28 10.3592 18.216C10.6152 18.1307 10.8605 18.024 11.0952 17.896C11.3512 17.768 11.5965 17.608 11.8312 17.416V13.736H8.53518V10.728H15.0952V19.272C14.1352 20.0187 13.1219 20.552 12.0552 20.872C10.9885 21.192 9.90052 21.352 8.79118 21.352ZM17.4952 21V1.064H24.2792C25.8365 1.064 27.1058 1.33067 28.0872 1.864C29.0899 2.39733 29.8259 3.10133 30.2952 3.976C30.7858 4.85067 31.0312 5.832 31.0312 6.92C31.0312 7.70933 30.8925 8.456 30.6152 9.16C30.3592 9.84267 29.9538 10.4507 29.3992 10.984C28.8658 11.496 28.1832 11.9013 27.3512 12.2C26.5405 12.4987 25.5698 12.648 24.4392 12.648H21.1752V21H17.4952ZM21.1752 9.64H24.1832C24.8658 9.64 25.4418 9.52267 25.9112 9.288C26.3805 9.05333 26.7325 8.73333 26.9672 8.328C27.2018 7.92267 27.3192 7.45333 27.3192 6.92C27.3192 6.38667 27.2018 5.91733 26.9672 5.512C26.7325 5.10667 26.3805 4.78667 25.9112 4.552C25.4632 4.31733 24.8979 4.2 24.2152 4.2H21.1752V9.64ZM38.1672 21.48C37.1432 21.48 36.1725 21.2987 35.2552 20.936C34.3378 20.5733 33.5698 20.0187 32.9512 19.272L34.7432 16.424L34.9032 16.168L35.1592 16.328C35.2018 16.4987 35.2552 16.6693 35.3192 16.84C35.3832 17.0107 35.5432 17.224 35.7992 17.48C36.0978 17.6933 36.4178 17.864 36.7592 17.992C37.1005 18.0987 37.4632 18.152 37.8472 18.152C38.4018 18.152 38.8605 18.0027 39.2232 17.704C39.6072 17.384 39.8952 16.9147 40.0872 16.296C40.2792 15.656 40.3752 14.8667 40.3752 13.928V3.976H36.6952V1.064H46.9032V3.976H43.9592V14.184C43.9805 15.4427 43.8312 16.5307 43.5112 17.448C43.1912 18.344 42.7538 19.0907 42.1992 19.688C41.6445 20.2853 41.0152 20.7333 40.3112 21.032C39.6072 21.3307 38.8925 21.48 38.1672 21.48Z" fill="#717171"/>
</svg>
